<svg width="10" height="15" viewBox="0 0 10 15" fill="none" xmlns="http://www.w3.org/2000/svg">
<path d="M9.15306 4.367C9.15306 4.69633 9.10873 5.05733 9.02006 5.45C8.94406 5.83 8.79206 6.19733 8.56406 6.552C8.34873 6.90667 8.04473 7.22333 7.65206 7.502C7.27206 7.78067 6.77806 7.98333 6.17006 8.11L6.07506 10.029H3.73806L3.52906 6.438L4.30806 6.4C5.09339 6.362 5.65073 6.153 5.98006 5.773C6.30939 5.38033 6.47406 4.94967 6.47406 4.481C6.47406 3.99967 6.32839 3.607 6.03706 3.303C5.75839 2.999 5.38473 2.847 4.91606 2.847C4.38406 2.847 3.99139 3.01167 3.73806 3.341C3.49739 3.67033 3.37706 4.06933 3.37706 4.538V4.804H0.831059C0.818392 4.79133 0.812059 4.728 0.812059 4.614C0.812059 4.48733 0.812059 4.41767 0.812059 4.405C0.812059 3.797 0.913392 3.25233 1.11606 2.771C1.31873 2.277 1.60373 1.859 1.97106 1.517C2.33839 1.175 2.77539 0.915333 3.28206 0.738C3.80139 0.560666 4.37139 0.472 4.99206 0.472C5.60006 0.472 6.15739 0.567 6.66406 0.756999C7.18339 0.946999 7.62673 1.213 7.99406 1.555C8.36139 1.897 8.64639 2.30867 8.84906 2.79C9.05173 3.25867 9.15306 3.78433 9.15306 4.367ZM3.26306 12.594C3.26306 12.1253 3.42139 11.7327 3.73806 11.416C4.06739 11.0867 4.46006 10.922 4.91606 10.922C5.38473 10.922 5.77739 11.0867 6.09406 11.416C6.42339 11.7327 6.58806 12.1253 6.58806 12.594C6.58806 13.0373 6.42339 13.4237 6.09406 13.753C5.77739 14.0697 5.38473 14.228 4.91606 14.228C4.46006 14.228 4.06739 14.0697 3.73806 13.753C3.42139 13.4237 3.26306 13.0373 3.26306 12.594Z" fill="white"/>
</svg>
